<svg width="30" height="31" viewBox="0 0 30 31" fill="none" xmlns="http://www.w3.org/2000/svg">
<g filter="url(#filter0_d_4_43)">
<path d="M11.8924 23.7113L7.33378 7.71982C7.0984 6.89409 7.95602 6.18106 8.73584 6.55413L23.8385 13.7792C24.6416 14.1634 24.5812 15.3159 23.7425 15.6131L17.5312 17.8139C17.3056 17.8938 17.1164 18.0511 16.9978 18.2574L13.7318 23.9361C13.2908 24.7029 12.1347 24.5616 11.8924 23.7113Z" fill="#FFB800"/>
<path d="M5.88369 8.12377C5.31369 6.12418 7.30771 4.389 9.20519 5.12986L9.38902 5.20942L24.4921 12.4345C26.4993 13.395 26.3484 16.2765 24.2518 17.0194L18.2144 19.1575L15.041 24.6774C13.9384 26.594 11.0484 26.241 10.4422 24.1157L5.88369 8.12377Z" stroke="#DC6803" stroke-width="3"/>
</g>
<defs>
<filter id="filter0_d_4_43" x="2.27551" y="2.45801" width="27.1455" height="27.9672" filterUnits="userSpaceOnUse" color-interpolation-filters="sRGB">
<feFlood flood-opacity="0" result="BackgroundImageFix"/>
<feColorMatrix in="SourceAlpha" type="matrix" values="0 0 0 0 0 0 0 0 0 0 0 0 0 0 0 0 0 0 127 0" result="hardAlpha"/>
<feOffset dy="1"/>
<feGaussianBlur stdDeviation="1"/>
<feComposite in2="hardAlpha" operator="out"/>
<feColorMatrix type="matrix" values="0 0 0 0 0 0 0 0 0 0 0 0 0 0 0 0 0 0 0.08 0"/>
<feBlend mode="normal" in2="BackgroundImageFix" result="effect1_dropShadow_4_43"/>
<feBlend mode="normal" in="SourceGraphic" in2="effect1_dropShadow_4_43" result="shape"/>
</filter>
</defs>
</svg>
